<svg width="1441" height="1831" viewBox="0 0 1441 1831" fill="none" xmlns="http://www.w3.org/2000/svg">
<path opacity="0.5" d="M148.171 1518C247.977 1535.33 263.946 1422.69 192.086 1368.97C120.226 1315.25 84.2961 1292.73 88.2881 1232.08C92.2801 1171.43 115.04 1138.5 120.226 1069.19C125.411 999.874 0.458984 914.964 0.458984 899.368L0.458984 1518C0.458984 1828.18 48.366 1500.67 148.171 1518Z" fill="url(#paint0_linear_621_168)"/>
<path d="M148 1644.33C247.999 1664.33 263.999 1534.33 192 1472.33C120 1410.33 84 1384.33 87.9998 1314.33C91.9995 1244.33 114.804 1206.33 120 1126.33C125.195 1046.33 -0.000228882 948.326 -0.000228882 930.326L-0.000228882 1644.33C-0.000228882 2002.33 48 1624.33 148 1644.33Z" fill="url(#paint1_linear_621_168)"/>
<path opacity="0.5" d="M148.171 287.172C247.977 269.844 263.946 382.48 192.086 436.198C120.226 489.917 84.2961 512.444 88.2881 573.094C92.2801 633.744 115.04 666.668 120.226 735.982C125.411 805.296 0.458984 890.206 0.458984 905.802L0.458984 287.172C0.458984 -23.0088 48.366 304.501 148.171 287.172Z" fill="url(#paint2_linear_621_168)"/>
<path d="M148 154.759C247.999 134.759 263.999 264.759 192 326.759C120 388.759 84 414.759 87.9998 484.759C91.9995 554.759 114.804 592.759 120 672.759C125.195 752.759 -0.000228882 850.759 -0.000228882 868.759L-0.000228882 154.759C-0.000228882 -203.241 48 174.759 148 154.759Z" fill="url(#paint3_linear_621_168)"/>
<path opacity="0.5" d="M1292.29 312.087C1192.48 294.759 1176.51 407.395 1248.37 461.113C1320.23 514.832 1356.16 537.359 1352.17 598.009C1348.18 658.659 1325.42 691.583 1320.23 760.897C1315.05 830.211 1440 915.121 1440 930.717V312.087C1440 1.9062 1392.09 329.416 1292.29 312.087Z" fill="url(#paint4_linear_621_168)"/>
<path d="M1292.46 185.759C1192.46 165.759 1176.46 295.759 1248.46 357.759C1320.46 419.759 1356.46 445.759 1352.46 515.759C1348.46 585.759 1325.65 623.759 1320.46 703.759C1315.26 783.759 1440.46 881.759 1440.46 899.759V185.759C1440.46 -172.241 1392.46 205.759 1292.46 185.759Z" fill="url(#paint5_linear_621_168)"/>
<path opacity="0.5" d="M1292.29 1542.91C1192.48 1560.24 1176.51 1447.61 1248.37 1393.89C1320.23 1340.17 1356.16 1317.64 1352.17 1256.99C1348.18 1196.34 1325.42 1163.42 1320.23 1094.1C1315.05 1024.79 1440 939.879 1440 924.283V1542.91C1440 1853.09 1392.09 1525.58 1292.29 1542.91Z" fill="url(#paint6_linear_621_168)"/>
<path d="M1292.46 1675.33C1192.46 1695.33 1176.46 1565.33 1248.46 1503.33C1320.46 1441.33 1356.46 1415.33 1352.46 1345.33C1348.46 1275.33 1325.65 1237.33 1320.46 1157.33C1315.26 1077.33 1440.46 979.326 1440.46 961.326V1675.33C1440.46 2033.33 1392.46 1655.33 1292.46 1675.33Z" fill="url(#paint7_linear_621_168)"/>
<defs>
<linearGradient id="paint0_linear_621_168" x1="0.459242" y1="1509.33" x2="0.459235" y2="1103.84" gradientUnits="userSpaceOnUse">
<stop stop-color="#FFA3A3"/>
<stop offset="1" stop-color="#96AAC9"/>
</linearGradient>
<linearGradient id="paint1_linear_621_168" x1="2.95476e-05" y1="1634.33" x2="1.95439e-05" y2="1166.33" gradientUnits="userSpaceOnUse">
<stop stop-color="#FFA3A3"/>
<stop offset="1" stop-color="#96AAC9"/>
</linearGradient>
<linearGradient id="paint2_linear_621_168" x1="0.459242" y1="295.837" x2="0.459235" y2="701.325" gradientUnits="userSpaceOnUse">
<stop stop-color="#FFA3A3"/>
<stop offset="1" stop-color="#96AAC9"/>
</linearGradient>
<linearGradient id="paint3_linear_621_168" x1="2.95476e-05" y1="164.759" x2="1.95439e-05" y2="632.759" gradientUnits="userSpaceOnUse">
<stop stop-color="#FFA3A3"/>
<stop offset="1" stop-color="#96AAC9"/>
</linearGradient>
<linearGradient id="paint4_linear_621_168" x1="1440" y1="320.752" x2="1440" y2="726.24" gradientUnits="userSpaceOnUse">
<stop stop-color="#FFA3A3"/>
<stop offset="1" stop-color="#96AAC9"/>
</linearGradient>
<linearGradient id="paint5_linear_621_168" x1="1440.46" y1="195.759" x2="1440.46" y2="663.759" gradientUnits="userSpaceOnUse">
<stop stop-color="#FFA3A3"/>
<stop offset="1" stop-color="#96AAC9"/>
</linearGradient>
<linearGradient id="paint6_linear_621_168" x1="1440" y1="1534.25" x2="1440" y2="1128.76" gradientUnits="userSpaceOnUse">
<stop stop-color="#FFA3A3"/>
<stop offset="1" stop-color="#96AAC9"/>
</linearGradient>
<linearGradient id="paint7_linear_621_168" x1="1440.46" y1="1665.33" x2="1440.46" y2="1197.33" gradientUnits="userSpaceOnUse">
<stop stop-color="#FFA3A3"/>
<stop offset="1" stop-color="#96AAC9"/>
</linearGradient>
</defs>
</svg>
